<?xml version="1.0" encoding="iso-8859-1"?>
<svg version="1.1" id="Capa_1" xmlns="http://www.w3.org/2000/svg" xmlns:xlink="http://www.w3.org/1999/xlink" x="0px" y="0px"
	 viewBox="0 0 512 512" style="enable-background:new 0 0 512 512;" xml:space="preserve">
<path style="fill:#87DCFA;" d="M512,258.89c0,138.462-112.039,252.31-252.31,252.31C119.783,511.2,7.38,397.696,7.38,258.89
	C7.38,119.543,120.342,6.58,259.69,6.58C399.297,6.58,512,119.782,512,258.89z"/>
<path style="fill:#FFE6E6;" d="M269.015,406.927L6.574,282.849c-5.73-2.709-8.179-9.551-5.47-15.28L124.119,7.373
	c2.709-5.73,9.551-8.179,15.28-5.47L401.841,125.98c5.73,2.709,8.179,9.551,5.47,15.28L284.296,401.457
	C281.587,407.186,274.745,409.636,269.015,406.927z"/>
<path style="fill:#FF8287;" d="M185.662,23.775l-26.565,56.19l-56.638-26.777l21.66-45.814c2.709-5.73,9.551-8.179,15.28-5.47
	L185.662,23.775z"/>
<rect x="169.624" y="33.922" transform="matrix(-0.4274 0.9041 -0.9041 -0.4274 345.4701 -88.3106)" style="fill:#FF5A5F;" width="62.155" height="62.657"/>
<rect x="226.262" y="60.694" transform="matrix(-0.4274 0.9041 -0.9041 -0.4274 450.5168 -101.3014)" style="fill:#C8373C;" width="62.155" height="62.657"/>
<rect x="282.904" y="87.467" transform="matrix(-0.4274 0.9041 -0.9041 -0.4274 555.571 -114.2941)" style="fill:#FF5A5F;" width="62.155" height="62.657"/>
<path style="fill:#FF8287;" d="M407.311,141.261l-21.66,45.814l-56.638-26.777l26.565-56.19l46.263,21.872
	C407.57,128.69,410.02,135.53,407.311,141.261z"/>
<rect x="86.428" y="63.332" transform="matrix(-0.4274 0.9041 -0.9041 -0.4274 253.305 28.8839)" style="fill:#FFA0A5;" width="62.155" height="62.657"/>
<rect x="199.697" y="116.883" transform="matrix(-0.4274 0.9041 -0.9041 -0.4274 463.3981 2.9181)" style="fill:#FF8287;" width="62.155" height="62.657"/>
<rect x="312.98" y="170.438" transform="matrix(-0.4274 0.9041 -0.9041 -0.4274 673.5131 -23.0527)" style="fill:#FFA0A5;" width="62.155" height="62.657"/>
<path style="fill:#FF8287;" d="M222.752,385.055l26.565-56.19l56.638,26.777l-21.66,45.814c-2.709,5.73-9.551,8.179-15.28,5.47
	L222.752,385.055z"/>
<rect x="176.63" y="312.25" transform="matrix(0.4274 -0.9041 0.9041 0.4274 -191.6823 384.5199)" style="fill:#FF5A5F;" width="62.155" height="62.657"/>
<rect x="119.985" y="285.484" transform="matrix(0.4274 -0.9041 0.9041 0.4274 -199.9202 317.9821)" style="fill:#C8373C;" width="62.155" height="62.657"/>
<rect x="63.345" y="258.694" transform="matrix(0.4274 -0.9041 0.9041 0.4274 -208.1331 251.4355)" style="fill:#FF5A5F;" width="62.155" height="62.657"/>
<path style="fill:#FF8287;" d="M1.104,267.569l21.66-45.814l56.638,26.777l-26.565,56.19L6.574,282.849
	C0.844,280.14-1.605,273.299,1.104,267.569z"/>
<rect x="259.83" y="282.843" transform="matrix(0.4274 -0.9041 0.9041 0.4274 -117.4551 442.8996)" style="fill:#FFA0A5;" width="62.155" height="62.657"/>
<rect x="146.554" y="229.282" transform="matrix(0.4274 -0.9041 0.9041 0.4274 -133.8951 309.8203)" style="fill:#FF8287;" width="62.155" height="62.657"/>
<rect x="33.278" y="175.731" transform="matrix(0.4274 -0.9041 0.9041 0.4274 -150.3445 176.747)" style="fill:#FFA0A5;" width="62.155" height="62.657"/>
<rect x="59.856" y="119.528" transform="matrix(-0.4274 0.9041 -0.9041 -0.4274 266.1819 133.1193)" style="fill:#C8373C;" width="62.155" height="62.657"/>
<rect x="116.499" y="146.304" transform="matrix(-0.4274 0.9041 -0.9041 -0.4274 371.2397 120.13)" style="fill:#FF5A5F;" width="62.155" height="62.657"/>
<rect x="173.143" y="173.077" transform="matrix(-0.4274 0.9041 -0.9041 -0.4274 476.2968 107.1354)" style="fill:#C8373C;" width="62.155" height="62.657"/>
<rect x="229.782" y="199.849" transform="matrix(-0.4274 0.9041 -0.9041 -0.4274 581.3468 94.1434)" style="fill:#FF5A5F;" width="62.155" height="62.657"/>
<rect x="286.416" y="226.617" transform="matrix(-0.4274 0.9041 -0.9041 -0.4274 686.3865 81.151)" style="fill:#C8373C;" width="62.155" height="62.657"/>
<path style="fill:#DCD2CD;" d="M21.507,49.241c85.309,72.234,251.601,102.856,271.934,106.383c1.218,0.212,2.429-0.402,2.983-1.508
	l11.72-23.388c2.893-5.765,8.045-9.701,13.887-11.209c4.284-1.101,13.113-0.399,13.113-0.399l7.733,3.086l6.744-26.939
	C116.729,50.519,67.618,35.317,22.541,45.13C20.63,45.545,20.015,47.977,21.507,49.241z"/>
<path style="fill:#AA6432;" d="M341.715,124.088l142.903,41.228c1.362,0.394,2.817-0.199,3.517-1.433l20.151-35.525
	c1.035-1.825-0.028-4.127-2.088-4.523L347.792,93.398c-1.06-0.204-2.086,0.491-2.29,1.551l-5.167,26.889
	C340.146,122.832,340.744,123.807,341.715,124.088z"/>
<path style="fill:#B4AAAA;" d="M21.508,49.239c2.923,2.471,5.96,4.926,9.287,7.467c0.004,0.001,0.008,0.002,0.012,0.007
	c64.419,49.448,182.292,84.981,262.633,98.91c1.218,0.212,2.433-0.4,2.986-1.504l3.953-7.895
	c-55.302-11.38-185.411-42.961-271.145-102.361c-0.516,0.087-6.51,1.128-6.733,1.278C20.617,45.57,20.027,47.988,21.508,49.239z"/>
<path style="fill:#B9783D;" d="M341.6,115.26l-1.265,6.581c-0.191,0.993,0.409,1.967,1.38,2.248l142.902,41.227
	c1.363,0.393,2.817-0.2,3.517-1.433l14.459-25.49l-101.167-22.738c-4.482-1.009-9.156-0.658-13.444,0.991
	C381.605,119.102,368.047,121.343,341.6,115.26z"/>
<path style="fill:#965028;" d="M341.6,115.26l-1.265,6.581c-0.191,0.993,0.409,1.967,1.38,2.248l142.902,41.227
	c1.363,0.393,2.817-0.2,3.517-1.433l1.734-3.057l12.726-22.433l-101.167-22.738c-4.482-1.009-9.156-0.658-13.444,0.991
	C381.605,119.102,368.047,121.343,341.6,115.26z"/>
<path style="fill:#FFC364;" d="M494.846,224.365c-9.563-24.702-40.371-34.733-65.624-21.349l-37.267,19.739
	c-2.897,1.537-6.438,0.384-7.538-2.461l-19.926-51.461c-4.164-10.768-16.967-15.845-28.586-11.339L45.84,270.914
	c-11.619,4.496-17.662,16.873-13.499,27.641L88.88,444.59c18.95,17.465,40.589,32.054,64.243,43.092l269.765-105.487
	c11.63-4.506,17.673-16.873,13.509-27.641l-20.456-52.832c-1.101-2.835,0.748-6.074,3.925-6.895
	c42.022-10.872,41.97-10.529,46.664-12.346C490.579,273.168,503.714,247.281,494.846,224.365z M457.787,254.238
	c-8.047,3.105-16.915-0.405-19.801-7.86s1.308-16.022,9.345-19.137c8.058-3.115,16.915,0.395,19.801,7.85
	C470.019,242.557,465.835,251.113,457.787,254.238z"/>
<path style="fill:#FFAF37;" d="M167.973,234.71c97.171-37.619,202.15-11.753,263.372,57.147c30.587-7.857,30.965-7.747,35.188-9.382
	c24.045-9.309,37.181-35.195,28.31-58.112c-9.563-24.702-40.369-34.738-65.622-21.355l-37.262,19.738
	c-2.901,1.537-6.44,0.384-7.539-2.454l-19.92-51.455c-4.169-10.769-16.974-15.849-28.602-11.348L45.838,270.911
	c-11.62,4.498-17.662,16.87-13.496,27.633l35.893,92.713C83.256,315.544,86.363,266.305,167.973,234.71z M447.335,227.237
	c8.053-3.118,16.91,0.396,19.797,7.855c2.888,7.459-1.294,16.02-9.347,19.138c-8.041,3.113-16.91-0.397-19.797-7.855
	C435.1,238.915,439.294,230.35,447.335,227.237z"/>
<circle style="fill:#8C8787;" cx="357.683" cy="300.656" r="49.79"/>
<path style="fill:#736E6E;" d="M337.709,255.039c-10.396,9.572-16.664,23.501-16.014,38.74c1.171,27.468,24.39,48.798,51.858,47.626
	c6.343-0.271,12.36-1.721,17.851-4.125c-8.354,7.712-19.371,12.608-31.6,13.129c-27.48,1.172-50.698-20.158-51.87-47.625
	C307.034,281.646,319.432,263.029,337.709,255.039z"/>
<circle style="fill:#EBE1DC;" cx="357.683" cy="300.656" r="35.668"/>
<path style="fill:#C8BEB9;" d="M337.38,271.332c-3.256,5.65-4.988,12.259-4.689,19.252c0.839,19.68,17.469,34.96,37.149,34.121
	c6.993-0.298,13.42-2.587,18.771-6.3c-5.87,10.247-16.722,17.342-29.408,17.884c-19.68,0.839-36.309-14.429-37.148-34.109
	C321.513,289.494,327.658,278.077,337.38,271.332z"/>
<circle style="fill:#5AA073;" cx="346.821" cy="292.702" r="14.457"/>
<path style="fill:#287D55;" d="M340.498,279.712c-0.707,1.803-1.045,3.77-0.957,5.817c0.341,7.981,7.079,14.168,15.06,13.828
	c2.058-0.088,3.99-0.592,5.727-1.438c-2.009,5.199-6.949,8.979-12.883,9.232c-7.98,0.341-14.72-5.848-15.06-13.828
	C332.131,287.389,335.476,282.145,340.498,279.712z"/>
<circle style="fill:#CD2D23;" cx="355.284" cy="311.237" r="14.457"/>
<path style="fill:#BE1E14;" d="M347.78,298.889c-1.055,2.119-1.604,4.518-1.496,7.045c0.341,7.981,7.08,14.168,15.06,13.828
	c2.527-0.108,4.871-0.859,6.893-2.091c-2.266,4.558-6.879,7.781-12.332,8.014c-7.981,0.341-14.72-5.859-15.06-13.828
	C340.612,306.405,343.43,301.533,347.78,298.889z"/>
<circle style="fill:#FF7D0A;" cx="367.993" cy="293.408" r="14.457"/>
<path style="fill:#DC550A;" d="M360.641,280.951c-0.997,2.081-1.512,4.417-1.407,6.885c0.34,7.968,7.092,14.167,15.06,13.828
	c2.456-0.105,4.74-0.817,6.728-1.999c-2.238,4.654-6.896,7.952-12.409,8.186c-7.98,0.341-14.72-5.848-15.06-13.828
	C353.317,288.511,356.207,283.589,360.641,280.951z"/>
<circle style="fill:#5A5555;" cx="285.081" cy="288.31" r="49.79"/>
<path style="fill:#464141;" d="M298.144,240.257c-14.101,0.931-27.72,7.848-36.773,20.122c-16.32,22.125-11.62,53.302,10.505,69.621
	c5.11,3.769,10.704,6.413,16.49,7.986c-11.343,0.765-22.994-2.334-32.845-9.601c-22.135-16.327-26.834-47.503-10.515-69.628
	C257.564,241.733,278.898,235.013,298.144,240.257z"/>
<circle style="fill:#DCD2CD;" cx="285.081" cy="288.31" r="35.668"/>
<path style="fill:#B4AAAA;" d="M287.666,252.739c-6.08,2.357-11.576,6.418-15.73,12.051c-11.693,15.853-8.329,38.185,7.524,49.876
	c5.633,4.154,12.073,6.405,18.57,6.871c-10.999,4.298-23.901,3.014-34.12-4.523c-15.853-11.693-19.223-34.014-7.531-49.867
	C263.917,256.928,275.864,251.893,287.666,252.739z"/>
<circle style="fill:#5AA073;" cx="281.613" cy="275.31" r="14.457"/>
<path style="fill:#287D55;" d="M284.838,261.221c-1.681,0.96-3.179,2.281-4.395,3.929c-4.741,6.428-3.375,15.475,3.053,20.216
	c1.658,1.223,3.479,2.042,5.362,2.473c-4.825,2.788-11.044,2.633-15.824-0.893c-6.428-4.741-7.794-13.788-3.053-20.217
	C273.506,261.95,279.401,259.966,284.838,261.221z"/>
<circle style="fill:#CD2D23;" cx="276.577" cy="295.049" r="14.457"/>
<path style="fill:#BE1E14;" d="M278.478,280.723c-2.151,0.989-4.084,2.512-5.585,4.548c-4.741,6.428-3.375,15.475,3.053,20.217
	c2.036,1.501,4.332,2.387,6.68,2.696c-4.624,2.129-10.239,1.744-14.631-1.495c-6.428-4.741-7.788-13.798-3.053-20.217
	C268.18,282.08,273.431,280.054,278.478,280.723z"/>
<circle style="fill:#FF7D0A;" cx="297.655" cy="289.141" r="14.457"/>
<path style="fill:#DC550A;" d="M299.746,274.823c-2.081,0.995-3.949,2.492-5.415,4.479c-4.734,6.418-3.365,15.482,3.053,20.217
	c1.978,1.459,4.204,2.337,6.494,2.663c-4.662,2.22-10.359,1.866-14.799-1.409c-6.428-4.741-7.794-13.788-3.053-20.217
	C289.302,276.116,294.64,274.095,299.746,274.823z"/>
<circle style="fill:#8C8787;" cx="250.784" cy="339.875" r="49.79"/>
<path style="fill:#736E6E;" d="M230.814,294.261c-10.396,9.572-16.664,23.501-16.014,38.74c1.171,27.468,24.39,48.798,51.858,47.626
	c6.343-0.271,12.36-1.721,17.851-4.125c-8.354,7.712-19.371,12.608-31.6,13.129c-27.48,1.172-50.698-20.158-51.87-47.625
	C200.138,320.868,212.536,302.251,230.814,294.261z"/>
<circle style="fill:#EBE1DC;" cx="250.784" cy="339.875" r="35.668"/>
<path style="fill:#C8BEB9;" d="M230.484,310.554c-3.256,5.65-4.988,12.259-4.689,19.252c0.839,19.68,17.469,34.96,37.149,34.121
	c6.993-0.298,13.42-2.587,18.771-6.3c-5.87,10.247-16.722,17.342-29.408,17.884c-19.68,0.839-36.309-14.429-37.148-34.109
	C214.618,328.716,220.763,317.299,230.484,310.554z"/>
<circle style="fill:#5AA073;" cx="239.933" cy="331.931" r="14.457"/>
<path style="fill:#287D55;" d="M233.602,318.934c-0.707,1.803-1.045,3.77-0.957,5.817c0.341,7.981,7.079,14.168,15.06,13.828
	c2.058-0.088,3.99-0.592,5.727-1.438c-2.009,5.199-6.949,8.979-12.883,9.232c-7.98,0.341-14.72-5.848-15.06-13.828
	C225.236,326.61,228.582,321.367,233.602,318.934z"/>
<circle style="fill:#CD2D23;" cx="248.396" cy="350.456" r="14.457"/>
<path style="fill:#BE1E14;" d="M240.884,338.11c-1.055,2.119-1.604,4.518-1.496,7.045c0.341,7.981,7.079,14.168,15.06,13.828
	c2.527-0.108,4.871-0.859,6.893-2.091c-2.266,4.558-6.879,7.781-12.332,8.014c-7.981,0.341-14.72-5.859-15.06-13.828
	C233.716,345.626,236.535,340.755,240.884,338.11z"/>
<circle style="fill:#FF7D0A;" cx="261.095" cy="332.637" r="14.457"/>
<path style="fill:#DC550A;" d="M253.745,320.173c-0.997,2.081-1.512,4.417-1.407,6.885c0.34,7.968,7.092,14.167,15.06,13.828
	c2.456-0.105,4.74-0.817,6.728-1.999c-2.238,4.654-6.896,7.952-12.409,8.186c-7.98,0.341-14.72-5.848-15.06-13.828
	C246.423,327.732,249.311,322.809,253.745,320.173z"/>
<circle style="fill:#5A5555;" cx="180.02" cy="324.351" r="49.79"/>
<path style="fill:#464141;" d="M193.088,276.298c-14.101,0.931-27.72,7.848-36.773,20.122c-16.32,22.125-11.62,53.302,10.505,69.621
	c5.11,3.769,10.704,6.413,16.49,7.986c-11.343,0.765-22.994-2.334-32.845-9.601c-22.135-16.327-26.834-47.503-10.515-69.628
	C152.507,277.775,173.841,271.055,193.088,276.298z"/>
<circle style="fill:#DCD2CD;" cx="180.02" cy="324.351" r="35.668"/>
<path style="fill:#B4AAAA;" d="M182.609,288.78c-6.08,2.357-11.576,6.418-15.73,12.051c-11.693,15.853-8.329,38.184,7.524,49.876
	c5.633,4.154,12.073,6.405,18.57,6.871c-10.999,4.298-23.901,3.014-34.12-4.523c-15.853-11.693-19.223-34.014-7.531-49.867
	C158.859,292.969,170.807,287.934,182.609,288.78z"/>
<circle style="fill:#5AA073;" cx="176.552" cy="311.351" r="14.457"/>
<path style="fill:#287D55;" d="M179.78,297.263c-1.681,0.96-3.179,2.281-4.395,3.929c-4.741,6.428-3.375,15.475,3.053,20.217
	c1.658,1.223,3.479,2.042,5.362,2.473c-4.825,2.788-11.044,2.633-15.824-0.893c-6.428-4.741-7.794-13.788-3.053-20.217
	C168.449,297.992,174.344,296.007,179.78,297.263z"/>
<circle style="fill:#CD2D23;" cx="171.516" cy="331.09" r="14.457"/>
<path style="fill:#BE1E14;" d="M173.42,316.764c-2.151,0.988-4.084,2.512-5.585,4.548c-4.741,6.428-3.375,15.475,3.053,20.217
	c2.036,1.501,4.332,2.387,6.68,2.696c-4.624,2.129-10.239,1.744-14.631-1.495c-6.428-4.741-7.788-13.798-3.053-20.217
	C163.123,318.12,168.375,316.095,173.42,316.764z"/>
<circle style="fill:#FF7D0A;" cx="192.594" cy="325.182" r="14.457"/>
<path style="fill:#DC550A;" d="M194.689,310.864c-2.081,0.995-3.949,2.492-5.415,4.479c-4.734,6.418-3.365,15.482,3.053,20.217
	c1.978,1.459,4.204,2.337,6.494,2.663c-4.662,2.22-10.359,1.866-14.799-1.409c-6.428-4.741-7.794-13.788-3.053-20.217
	C184.244,312.157,189.582,310.136,194.689,310.864z"/>
<circle style="fill:#736E6E;" cx="146.294" cy="374.743" r="49.79"/>
<path style="fill:#5A5555;" d="M126.324,329.128c-10.396,9.572-16.664,23.501-16.014,38.74c1.171,27.468,24.39,48.798,51.858,47.626
	c6.343-0.271,12.36-1.721,17.851-4.125c-8.354,7.712-19.371,12.608-31.6,13.129c-27.48,1.172-50.698-20.158-51.87-47.625
	C95.649,355.735,108.047,337.118,126.324,329.128z"/>
<circle style="fill:#EBE1DC;" cx="146.294" cy="374.743" r="35.668"/>
<path style="fill:#C8BEB9;" d="M125.994,345.421c-3.256,5.65-4.988,12.259-4.689,19.252c0.839,19.68,17.469,34.96,37.149,34.121
	c6.993-0.298,13.42-2.587,18.771-6.3c-5.87,10.247-16.722,17.342-29.408,17.884c-19.68,0.839-36.309-14.429-37.148-34.109
	C110.128,363.582,116.274,352.166,125.994,345.421z"/>
<circle style="fill:#5AA073;" cx="135.443" cy="366.799" r="14.457"/>
<path style="fill:#287D55;" d="M129.113,353.801c-0.707,1.803-1.045,3.77-0.957,5.817c0.341,7.981,7.08,14.168,15.06,13.828
	c2.058-0.088,3.99-0.592,5.727-1.438c-2.009,5.199-6.949,8.979-12.883,9.232c-7.98,0.341-14.72-5.848-15.06-13.828
	C120.746,361.478,124.092,356.234,129.113,353.801z"/>
<circle style="fill:#CD2D23;" cx="143.906" cy="385.324" r="14.457"/>
<path style="fill:#BE1E14;" d="M136.394,372.978c-1.055,2.119-1.604,4.518-1.496,7.045c0.341,7.981,7.08,14.168,15.06,13.828
	c2.527-0.108,4.871-0.859,6.893-2.091c-2.266,4.558-6.879,7.781-12.332,8.014c-7.981,0.341-14.72-5.859-15.06-13.828
	C129.228,380.494,132.046,375.622,136.394,372.978z"/>
<circle style="fill:#FF7D0A;" cx="156.605" cy="367.505" r="14.457"/>
<path style="fill:#DC550A;" d="M149.256,355.04c-0.997,2.081-1.512,4.417-1.407,6.885c0.34,7.968,7.092,14.167,15.06,13.828
	c2.456-0.105,4.74-0.817,6.728-1.999c-2.238,4.654-6.896,7.952-12.409,8.186c-7.98,0.341-14.72-5.848-15.06-13.828
	C141.933,362.599,144.823,357.677,149.256,355.04z"/>
<path style="fill:#FF9B32;" d="M460.456,252.92c-0.831,0.498-1.724,0.945-2.669,1.308c-8.047,3.115-16.915-0.395-19.801-7.85
	c-2.887-7.466,1.308-16.032,9.345-19.137c1.09-0.426,2.191-0.727,3.302-0.914c-6.261,3.8-9.221,11.245-6.677,17.839
	C446.449,250.615,453.416,254.103,460.456,252.92z"/>
<g>
</g>
<g>
</g>
<g>
</g>
<g>
</g>
<g>
</g>
<g>
</g>
<g>
</g>
<g>
</g>
<g>
</g>
<g>
</g>
<g>
</g>
<g>
</g>
<g>
</g>
<g>
</g>
<g>
</g>
</svg>
